<svg xmlns="http://www.w3.org/2000/svg" width="408.668" height="525.658" viewBox="0 0 408.668 525.658">
<g id="intro-cover-image" transform="translate(-1175.716 -226.414)">
<g id="bus_1_" data-name="bus (1)" transform="translate(1186.938 235.392)">
<g id="Group_95" data-name="Group 95" transform="translate(0)">
<g id="Group_94" data-name="Group 94">
<path id="Path_71" data-name="Path 71" d="M395.765,0H97.681A49.827,49.827,0,0,0,48,49.681v357.7c0,15.4,8.446,28.318,20.369,37.261a21.519,21.519,0,0,0-.5,2.484V481.9a34.562,34.562,0,0,0,34.777,34.777h9.936A34.562,34.562,0,0,0,147.362,481.9v-24.84H346.085V481.9a34.563,34.563,0,0,0,34.777,34.777H390.8A34.562,34.562,0,0,0,425.574,481.9V447.127a49.625,49.625,0,0,0,19.872-39.745V49.681A49.827,49.827,0,0,0,395.765,0ZM127.489,481.9a14.638,14.638,0,0,1-14.9,14.9h-9.936a14.638,14.638,0,0,1-14.9-14.9V454.579a52.03,52.03,0,0,0,14.9,2.484h24.84Zm278.212,0a14.638,14.638,0,0,1-14.9,14.9h-9.936a14.638,14.638,0,0,1-14.9-14.9v-24.84h29.808a61.162,61.162,0,0,0,9.936-.994Zm19.872-74.521a29.9,29.9,0,0,1-29.808,29.809H102.649c-15.9,0-34.777-13.414-34.777-29.809V317.957h357.7Zm0-109.3H67.872V99.362h357.7Zm0-218.6H67.872V49.681A29.9,29.9,0,0,1,97.681,19.872H395.765a29.9,29.9,0,0,1,29.808,29.808Z" transform="translate(-48 0)" fill="#d3d2d2"/>
<path id="Path_72" data-name="Path 72" d="M206.521,32H141.936a9.936,9.936,0,0,0,0,19.872h64.585a9.936,9.936,0,1,0,0-19.872Z" transform="translate(-27.67 7.745)" fill="#d3d2d2"/>
<path id="Path_73" data-name="Path 73" d="M244.84,32h-14.9a9.936,9.936,0,0,0,0,19.872h14.9a9.936,9.936,0,0,0,0-19.872Z" transform="translate(-6.373 7.745)" fill="#d3d2d2"/>
<path id="Path_74" data-name="Path 74" d="M113.808,335.617A29.808,29.808,0,1,0,84,305.809,29.9,29.9,0,0,0,113.808,335.617Zm0-39.745a9.936,9.936,0,1,1-9.936,9.936A9.965,9.965,0,0,1,113.808,295.872Z" transform="translate(-39.287 66.797)" fill="#d3d2d2"/>
<path id="Path_75" data-name="Path 75" d="M313.808,335.617A29.808,29.808,0,1,0,284,305.809,29.9,29.9,0,0,0,313.808,335.617Zm0-39.745a9.936,9.936,0,1,1-9.936,9.936A9.965,9.965,0,0,1,313.808,295.872Z" transform="translate(9.117 66.797)" fill="#d3d2d2"/>
        </g>
        </g>
        </g>
<g id="bus_1_2" data-name="bus (1)" transform="translate(1175.716 226.414)">
<g id="Group_95-2" data-name="Group 95" transform="translate(0)">
<g id="Group_94-2" data-name="Group 94">
<path id="Path_71-2" data-name="Path 71" d="M395.765,0H97.681A49.827,49.827,0,0,0,48,49.681v357.7c0,15.4,8.446,28.318,20.369,37.261a21.519,21.519,0,0,0-.5,2.484V481.9a34.562,34.562,0,0,0,34.777,34.777h9.936A34.562,34.562,0,0,0,147.362,481.9v-24.84H346.085V481.9a34.563,34.563,0,0,0,34.777,34.777H390.8A34.562,34.562,0,0,0,425.574,481.9V447.127a49.625,49.625,0,0,0,19.872-39.745V49.681A49.827,49.827,0,0,0,395.765,0ZM127.489,481.9a14.638,14.638,0,0,1-14.9,14.9h-9.936a14.638,14.638,0,0,1-14.9-14.9V454.579a52.03,52.03,0,0,0,14.9,2.484h24.84Zm278.212,0a14.638,14.638,0,0,1-14.9,14.9h-9.936a14.638,14.638,0,0,1-14.9-14.9v-24.84h29.808a61.162,61.162,0,0,0,9.936-.994Zm19.872-74.521a29.9,29.9,0,0,1-29.808,29.809H102.649c-15.9,0-34.777-13.414-34.777-29.809V317.957h357.7Zm0-109.3H67.872V99.362h357.7Zm0-218.6H67.872V49.681A29.9,29.9,0,0,1,97.681,19.872H395.765a29.9,29.9,0,0,1,29.808,29.808Z" transform="translate(-48 0)" fill="#d41920"/>
<path id="Path_72-2" data-name="Path 72" d="M206.521,32H141.936a9.936,9.936,0,0,0,0,19.872h64.585a9.936,9.936,0,1,0,0-19.872Z" transform="translate(-27.67 7.745)" fill="#d41920"/>
<path id="Path_73-2" data-name="Path 73" d="M244.84,32h-14.9a9.936,9.936,0,0,0,0,19.872h14.9a9.936,9.936,0,0,0,0-19.872Z" transform="translate(-6.373 7.745)" fill="#d41920"/>
<path id="Path_74-2" data-name="Path 74" d="M113.808,335.617A29.808,29.808,0,1,0,84,305.809,29.9,29.9,0,0,0,113.808,335.617Zm0-39.745a9.936,9.936,0,1,1-9.936,9.936A9.965,9.965,0,0,1,113.808,295.872Z" transform="translate(-39.287 66.797)" fill="#d41920"/>
<path id="Path_75-2" data-name="Path 75" d="M313.808,335.617A29.808,29.808,0,1,0,284,305.809,29.9,29.9,0,0,0,313.808,335.617Zm0-39.745a9.936,9.936,0,1,1-9.936,9.936A9.965,9.965,0,0,1,313.808,295.872Z" transform="translate(9.117 66.797)" fill="#d41920"/>
        </g>
        </g>
        </g>
        </g></svg>