<svg id="Component_1_1" data-name="Component 1 – 1" xmlns="http://www.w3.org/2000/svg" width="670.5" height="702.76" viewBox="0 0 670.5 702.76">
  <g id="leaf" transform="translate(6.636 0)">
    <g id="Group_96" data-name="Group 96" transform="translate(15.363 0)">
      <path id="Path_76" data-name="Path 76" d="M629.331,9.469A12.783,12.783,0,0,0,622.9,1.487h0a12.787,12.787,0,0,0-17.281,5.321c-.009.016-.018.032-.025.048,0,.353-64.773,126.014-263.613,147.911a252.652,252.652,0,0,0-75.156,20.061A208.8,208.8,0,0,0,166.6,266.654a215.8,215.8,0,0,0-24.652,125.732,211.332,211.332,0,0,0,30.938,89.142c-35.318,25.358-147.346,113.017-157.447,207.1a12.785,12.785,0,1,0,25.429,2.684C50.117,607.33,155.223,525.887,188,502.294c39.344,48.315,98.254,75.58,161.473,80.03a273.009,273.009,0,0,0,124.389-21.191,285.3,285.3,0,0,0,109.627-81.443C659.28,387.865,695.375,233.525,629.331,9.469ZM195.344,468.884h0a183.769,183.769,0,0,1-12.856-24.016,186.474,186.474,0,0,1-14.834-55.237,190.155,190.155,0,0,1,21.191-110.9A183.65,183.65,0,0,1,277.141,198a227.441,227.441,0,0,1,67.669-17.73c131.241-14.127,208.446-72.543,248.285-114.924A541.644,541.644,0,0,1,475.133,272.8l-7.77-78.264a12.785,12.785,0,0,0-25.53,1.432c.019.348.053.7.1,1.04l9.96,100.585C392.489,357.844,309.916,418.379,195.344,468.884ZM563.71,463.3v.071a259.737,259.737,0,0,1-99.738,74.45,247.241,247.241,0,0,1-113.017,18.93,202.088,202.088,0,0,1-140.212-66.892A962.754,962.754,0,0,0,332.66,425.09L444.9,446.28a12.785,12.785,0,0,0,4.591-25.146l-86.246-16.317A745.56,745.56,0,0,0,473.932,311.79a12.926,12.926,0,0,0,1.7-1.766c89.142-92.815,127.074-184.642,142.9-241.15C662.176,255.069,628.765,384.615,563.71,463.3Z" transform="translate(-15.363 0)" fill="#d3d2d2"/>
    </g>
  </g>
  <g id="leaf-2" data-name="leaf" transform="translate(-15.363 0)">
    <g id="Group_96-2" data-name="Group 96" transform="translate(15.363 0)">
      <path id="Path_76-2" data-name="Path 76" d="M629.331,9.469A12.783,12.783,0,0,0,622.9,1.487h0a12.787,12.787,0,0,0-17.281,5.321c-.009.016-.018.032-.025.048,0,.353-64.773,126.014-263.613,147.911a252.652,252.652,0,0,0-75.156,20.061A208.8,208.8,0,0,0,166.6,266.654a215.8,215.8,0,0,0-24.652,125.732,211.332,211.332,0,0,0,30.938,89.142c-35.318,25.358-147.346,113.017-157.447,207.1a12.785,12.785,0,1,0,25.429,2.684C50.117,607.33,155.223,525.887,188,502.294c39.344,48.315,98.254,75.58,161.473,80.03a273.009,273.009,0,0,0,124.389-21.191,285.3,285.3,0,0,0,109.627-81.443C659.28,387.865,695.375,233.525,629.331,9.469ZM195.344,468.884h0a183.769,183.769,0,0,1-12.856-24.016,186.474,186.474,0,0,1-14.834-55.237,190.155,190.155,0,0,1,21.191-110.9A183.65,183.65,0,0,1,277.141,198a227.441,227.441,0,0,1,67.669-17.73c131.241-14.127,208.446-72.543,248.285-114.924A541.644,541.644,0,0,1,475.133,272.8l-7.77-78.264a12.785,12.785,0,0,0-25.53,1.432c.019.348.053.7.1,1.04l9.96,100.585C392.489,357.844,309.916,418.379,195.344,468.884ZM563.71,463.3v.071a259.737,259.737,0,0,1-99.738,74.45,247.241,247.241,0,0,1-113.017,18.93,202.088,202.088,0,0,1-140.212-66.892A962.754,962.754,0,0,0,332.66,425.09L444.9,446.28a12.785,12.785,0,0,0,4.591-25.146l-86.246-16.317A745.56,745.56,0,0,0,473.932,311.79a12.926,12.926,0,0,0,1.7-1.766c89.142-92.815,127.074-184.642,142.9-241.15C662.176,255.069,628.765,384.615,563.71,463.3Z" transform="translate(-15.363 0)" fill="#d31920"/>
    </g>
  </g>
</svg>
