<svg xmlns="http://www.w3.org/2000/svg" width="70" height="54.309" viewBox="0 0 70 54.309"><g transform="translate(88.143 147.721)"><g transform="translate(-88.143 -147.721)"><g transform="translate(0)"><path d="M116.854,220.729c0-.022,0-.044,0-.066a1.206,1.206,0,0,0-.02-.131v0l-2.247-10.673,0-.011-2.247-10.673,0-.011-2.249-10.683a1.262,1.262,0,0,0-1.235-1H54.866a1.262,1.262,0,0,0-1.235,1L51.383,199.16l0,.013-2.247,10.673,0,.009-2.247,10.673a1.283,1.283,0,0,0-.021.138c0,.011,0,.022,0,.032,0,.03,0,.06,0,.091v5.061a1.262,1.262,0,0,0,1.262,1.262H78.064V234.2h-9.7a1.262,1.262,0,0,0-1.262,1.262v3.8H54.866a1.262,1.262,0,0,0,0,2.523h53.98a1.262,1.262,0,0,0,0-2.523H96.614v-3.8a1.262,1.262,0,0,0-1.262-1.262h-9.7v-7.088H115.6a1.262,1.262,0,0,0,1.262-1.262v-5.039a.056.056,0,0,0,0-.006v-.016C116.857,220.769,116.855,220.75,116.854,220.729Zm-2.814-1.2H94.28l-.573-8.161h18.616Zm-3.967-18.844,1.718,8.16H93.53l-.573-8.16ZM107.824,190l1.718,8.161H92.78L92.207,190Zm-33.788,0H89.678l.573,8.161H73.463Zm-.75,10.684H90.427l.573,8.16H72.714Zm-.75,10.684h18.64l.573,8.16H71.964ZM55.89,190H71.507l-.573,8.161H54.172Zm-2.249,10.684H70.757l-.573,8.16H51.923Zm40.45,36.041v2.538H69.623v-2.538H94.091Zm-13.5-2.523v-7.088h2.538V234.2Zm3.814-9.612H49.38v-2.538h6.01a1.262,1.262,0,1,0,0-2.523H49.674l1.718-8.161H70.007l-.573,8.16H60.847a1.262,1.262,0,0,0,0,2.523h53.487v2.538H84.4Z" transform="translate(-46.857 -187.476)" fill="#191919"/></g></g></g></svg>