<svg xmlns="http://www.w3.org/2000/svg" width="54.792" height="71.23" viewBox="0 0 54.792 71.23"><g transform="translate(-48)"><g transform="translate(48)"><path d="M95.943,0H54.849A6.869,6.869,0,0,0,48,6.849V56.162A6.461,6.461,0,0,0,50.808,61.3a2.967,2.967,0,0,0-.068.342v4.794a4.765,4.765,0,0,0,4.794,4.794H56.9A4.765,4.765,0,0,0,61.7,66.435V63.011h27.4v3.424a4.765,4.765,0,0,0,4.794,4.794h1.37a4.765,4.765,0,0,0,4.794-4.794V61.641a6.841,6.841,0,0,0,2.74-5.479V6.849A6.869,6.869,0,0,0,95.943,0ZM58.958,66.435A2.018,2.018,0,0,1,56.9,68.49h-1.37a2.018,2.018,0,0,1-2.055-2.055V62.668a7.173,7.173,0,0,0,2.055.342h3.425Zm38.354,0a2.018,2.018,0,0,1-2.055,2.055h-1.37a2.018,2.018,0,0,1-2.055-2.055V63.011h4.109a8.432,8.432,0,0,0,1.37-.137Zm2.74-10.274a4.121,4.121,0,0,1-4.109,4.109H55.534c-2.192,0-4.794-1.849-4.794-4.109V43.834h49.313Zm0-15.068H50.74V13.7h49.313Zm0-30.136H50.74V6.849A4.121,4.121,0,0,1,54.849,2.74H95.943a4.121,4.121,0,0,1,4.109,4.109Z" transform="translate(-48 0)" fill="#191919"/><path d="M142.273,32h-8.9a1.37,1.37,0,0,0,0,2.74h8.9a1.37,1.37,0,0,0,0-2.74Z" transform="translate(-117.617 -26.521)" fill="#191919"/><path d="M223.424,32H221.37a1.37,1.37,0,0,0,0,2.74h2.055a1.37,1.37,0,0,0,0-2.74Z" transform="translate(-190.549 -26.521)" fill="#191919"/><path d="M88.109,284.219A4.109,4.109,0,1,0,84,280.109,4.122,4.122,0,0,0,88.109,284.219Zm0-5.479a1.37,1.37,0,1,1-1.37,1.37A1.374,1.374,0,0,1,88.109,278.74Z" transform="translate(-77.836 -228.742)" fill="#191919"/><path d="M288.109,284.219A4.109,4.109,0,1,0,284,280.109,4.122,4.122,0,0,0,288.109,284.219Zm0-5.479a1.37,1.37,0,1,1-1.37,1.37A1.374,1.374,0,0,1,288.109,278.74Z" transform="translate(-243.591 -228.742)" fill="#191919"/></g></g></svg>