<?xml version="1.0" encoding="iso-8859-1"?>
<!-- Generator: Adobe Illustrator 19.1.0, SVG Export Plug-In . SVG Version: 6.00 Build 0)  -->
<svg version="1.1" id="Capa_1" xmlns="http://www.w3.org/2000/svg" xmlns:xlink="http://www.w3.org/1999/xlink" x="0px" y="0px"
	 viewBox="0 0 67.321 67.321" style="enable-background:new 0 0 67.321 67.321;" xml:space="preserve">
<g>
	<g id="group-41svg">
		<path id="path-1_34_" style="fill:#EDC951;" d="M67.321,35.82c0,16.617-13.471,30.087-30.089,30.087
			c-16.619,0-30.089-13.47-30.089-30.087c0-16.615,13.47-30.085,30.089-30.085C53.85,5.735,67.321,19.205,67.321,35.82z"/>
		<path id="path-2_34_" style="fill:#53ECF4;" d="M58.06,30.46c0,4.542-3.683,8.224-8.227,8.224c-4.543,0-8.225-3.682-8.225-8.224
			c0-4.543,3.682-8.225,8.225-8.225C54.377,22.235,58.06,25.917,58.06,30.46z"/>
		<path id="path-3_34_" style="fill:#53ECF4;" d="M32.108,30.46c0,4.542-3.684,8.224-8.227,8.224s-8.226-3.682-8.226-8.224
			c0-4.543,3.683-8.225,8.226-8.225S32.108,25.917,32.108,30.46z"/>
		<path id="path-4_34_" d="M34.374,52.677h-5.056c-6.402,0-11.61-5.158-11.61-11.499c0-0.829,0.672-1.5,1.5-1.5
			c0.828,0,1.5,0.671,1.5,1.5c0,4.687,3.862,8.5,8.61,8.5h5.056c4.828,0,8.611-3.686,8.611-8.39c0-0.829,0.671-1.5,1.5-1.5
			c0.828,0,1.499,0.671,1.499,1.5C45.984,47.674,40.885,52.677,34.374,52.677z"/>
		<path id="path-5_34_" d="M45.132,37.364c-5.362,0-9.726-4.363-9.726-9.725s4.364-9.725,9.726-9.725s9.726,4.363,9.726,9.725
			S50.494,37.364,45.132,37.364z M45.132,20.914c-3.709,0-6.726,3.017-6.726,6.725s3.017,6.725,6.726,6.725s6.726-3.017,6.726-6.725
			S48.841,20.914,45.132,20.914z"/>
		<path id="path-6_29_" d="M19.18,37.364c-5.362,0-9.726-4.363-9.726-9.725s4.364-9.725,9.726-9.725s9.725,4.363,9.725,9.725
			S24.542,37.364,19.18,37.364z M19.18,20.914c-3.709,0-6.726,3.017-6.726,6.725s3.017,6.725,6.726,6.725s6.725-3.017,6.725-6.725
			S22.889,20.914,19.18,20.914z"/>
		<path id="path-7_27_" d="M36.289,28.68h-9c-0.828,0-1.5-0.671-1.5-1.5c0-0.828,0.672-1.5,1.5-1.5h9c0.828,0,1.5,0.672,1.5,1.5
			C37.789,28.009,37.117,28.68,36.289,28.68z"/>
		<path id="path-8_18_" d="M53.359,29.14c-0.568,0-1.111-0.324-1.364-0.873c-0.346-0.753-0.017-1.644,0.735-1.99l6.018-2.772
			c0.754-0.348,1.644-0.018,1.99,0.735c0.347,0.753,0.018,1.644-0.734,1.99l-6.019,2.771C53.781,29.095,53.569,29.14,53.359,29.14z"
			/>
		<path id="path-9_14_" d="M10.856,29.14c-0.21,0-0.423-0.045-0.627-0.139L4.21,26.23c-0.752-0.346-1.081-1.237-0.734-1.99
			c0.345-0.753,1.233-1.083,1.99-0.735l6.019,2.772c0.751,0.346,1.081,1.237,0.734,1.99C11.966,28.816,11.423,29.14,10.856,29.14z"
			/>
		<path id="path-10_10_" d="M31.59,64.586C14.171,64.586,0,50.416,0,33S14.171,1.414,31.59,1.414S63.18,15.584,63.18,33
			S49.009,64.586,31.59,64.586z M31.59,4.414C15.825,4.414,3,17.238,3,33c0,15.763,12.825,28.586,28.59,28.586
			S60.18,48.763,60.18,33C60.18,17.238,47.355,4.414,31.59,4.414z"/>
	</g>
</g>
<g>
</g>
<g>
</g>
<g>
</g>
<g>
</g>
<g>
</g>
<g>
</g>
<g>
</g>
<g>
</g>
<g>
</g>
<g>
</g>
<g>
</g>
<g>
</g>
<g>
</g>
<g>
</g>
<g>
</g>
</svg>
