<?xml version="1.0" encoding="iso-8859-1"?>
<!-- Generator: Adobe Illustrator 19.1.0, SVG Export Plug-In . SVG Version: 6.00 Build 0)  -->
<svg version="1.1" id="Capa_1" xmlns="http://www.w3.org/2000/svg" xmlns:xlink="http://www.w3.org/1999/xlink" x="0px" y="0px"
	 viewBox="0 0 67.364 67.364" style="enable-background:new 0 0 67.364 67.364;" xml:space="preserve">
<g>
	<g id="group-32svg">
		<path id="path-1_24_" style="fill:#EDC951;" d="M67.364,35.387c0,16.868-13.676,30.541-30.545,30.541
			c-16.87,0-30.546-13.673-30.546-30.541S19.949,4.845,36.819,4.845C53.688,4.845,67.364,18.519,67.364,35.387z"/>
		<path id="path-2_24_" style="fill:#53ECF4;" d="M26.76,16.239c0.495,4.223-1.565,6.13-5.817,6.13s-6.092-1.919-5.503-6.13
			c0.627-4.483,5.503-9.58,5.503-9.58S26.261,11.991,26.76,16.239z"/>
		<path id="path-3_24_" style="fill:#8B71B5;" d="M52.526,45.25c0,6-5.557,10.999-12.411,10.999h-6.206
			c-6.854,0-12.411-4.999-12.411-10.999H52.526z"/>
		<path id="path-4_24_" d="M46.297,27.923c0,2.041-1.655,3.695-3.695,3.695c-2.041,0-3.695-1.654-3.695-3.695
			s1.654-3.695,3.695-3.695C44.642,24.228,46.297,25.882,46.297,27.923z"/>
		<path id="path-5_24_" d="M25.05,27.923c0,2.041-1.654,3.695-3.694,3.695c-2.041,0-3.696-1.654-3.696-3.695
			s1.655-3.695,3.696-3.695C23.396,24.228,25.05,25.882,25.05,27.923z"/>
		<path id="path-6_19_" d="M16.17,21.006c-2.664,0-4.546-0.675-5.753-2.063c-1.168-1.343-1.584-3.286-1.235-5.775
			c0.686-4.906,5.691-10.187,5.904-10.409c0.279-0.292,0.665-0.459,1.068-0.463c0.382,0.01,0.792,0.154,1.078,0.441
			c0.233,0.232,5.692,5.754,6.245,10.464c0.285,2.429-0.178,4.343-1.375,5.689C20.853,20.294,18.858,21.006,16.17,21.006z
			 M16.202,6.04c-1.379,1.675-3.667,4.806-4.05,7.543c-0.222,1.592-0.044,2.733,0.528,3.391c0.596,0.685,1.77,1.032,3.49,1.032
			c1.794,0,3.036-0.374,3.691-1.11c0.603-0.678,0.817-1.804,0.636-3.345C20.212,11.121,17.852,7.939,16.202,6.04z"/>
		<path id="path-7_18_" d="M32.046,65.52C14.376,65.52,0,51.146,0,33.478c0-8.792,3.49-16.992,9.828-23.091
			c0.597-0.573,1.547-0.556,2.121,0.041c0.575,0.597,0.557,1.547-0.041,2.121C6.164,18.076,3,25.509,3,33.478
			C3,49.492,16.03,62.52,32.046,62.52s29.045-13.028,29.045-29.042S48.062,4.436,32.046,4.436c-4.378,0-8.586,0.95-12.506,2.822
			c-0.748,0.356-1.644,0.04-2-0.707c-0.357-0.747-0.041-1.642,0.707-1.999c4.326-2.068,8.969-3.116,13.799-3.116
			c17.67,0,32.045,14.374,32.045,32.042S49.716,65.52,32.046,65.52z"/>
		<path id="path-8_11_" d="M35.342,54.249h-6.206c-7.67,0-13.911-5.607-13.911-12.498c0-0.829,0.672-1.5,1.5-1.5h31.028
			c0.829,0,1.5,0.671,1.5,1.5C49.253,48.642,43.012,54.249,35.342,54.249z M18.361,43.251c0.829,4.527,5.345,7.999,10.775,7.999
			h6.206c5.43,0,9.947-3.472,10.775-7.999H18.361z"/>
	</g>
</g>
<g>
</g>
<g>
</g>
<g>
</g>
<g>
</g>
<g>
</g>
<g>
</g>
<g>
</g>
<g>
</g>
<g>
</g>
<g>
</g>
<g>
</g>
<g>
</g>
<g>
</g>
<g>
</g>
<g>
</g>
</svg>
