<?xml version="1.0" encoding="iso-8859-1"?>
<!-- Generator: Adobe Illustrator 19.1.0, SVG Export Plug-In . SVG Version: 6.00 Build 0)  -->
<svg version="1.1" id="Capa_1" xmlns="http://www.w3.org/2000/svg" xmlns:xlink="http://www.w3.org/1999/xlink" x="0px" y="0px"
	 viewBox="0 0 67.321 67.321" style="enable-background:new 0 0 67.321 67.321;" xml:space="preserve">
<g>
	<g id="group-37svg">
		<path id="path-1_29_" style="fill:#EDC951;" d="M67.321,35.82c0,16.617-13.471,30.087-30.089,30.087
			c-16.619,0-30.089-13.47-30.089-30.087c0-16.615,13.47-30.085,30.089-30.085C53.85,5.735,67.321,19.205,67.321,35.82z"/>
		<path id="path-2_29_" style="fill:#53ECF4;" d="M23.959,33.214c-0.428,2.638-2.002,3.437-4.572,2.705
			c-2.57-0.732-3.353-2.209-2.272-4.653c1.152-2.602,4.976-4.844,4.976-4.844S24.389,30.561,23.959,33.214z"/>
		<path id="path-3_29_" style="fill:#53ECF4;" d="M52.805,33.214c0.427,2.638,2.001,3.437,4.571,2.705
			c2.57-0.732,3.353-2.209,2.272-4.653c-1.151-2.602-4.976-4.844-4.976-4.844S52.374,30.561,52.805,33.214z"/>
		<path id="path-4_29_" style="fill:#8B71B5;" d="M53.645,43.678c0,6.999-5.474,11.999-12.226,11.999h-6.113
			c-6.752,0-12.226-5-12.226-11.999H53.645z"/>
		<path id="path-5_29_" d="M14.442,34.857c-0.624,0-1.312-0.106-2.048-0.316c-1.75-0.498-2.919-1.352-3.475-2.537
			c-0.546-1.165-0.465-2.566,0.242-4.165c1.31-2.959,5.156-5.277,5.589-5.531c0.35-0.204,0.765-0.259,1.154-0.153
			c0.39,0.106,0.72,0.366,0.916,0.719c0.261,0.47,2.537,4.682,2.038,7.759C18.262,34.308,15.835,34.857,14.442,34.857z
			 M14.91,25.814c-1.124,0.841-2.482,2.057-3.005,3.239c-0.331,0.747-0.426,1.344-0.269,1.678c0.165,0.354,0.726,0.682,1.58,0.925
			c0.469,0.134,0.881,0.201,1.226,0.201c0.497,0,1.178,0,1.455-1.703C16.088,28.971,15.485,27.158,14.91,25.814z"/>
		<path id="path-6_24_" d="M49.158,34.857L49.158,34.857c-1.394,0-3.822-0.549-4.416-4.224c-0.5-3.077,1.776-7.289,2.036-7.759
			c0.197-0.353,0.527-0.613,0.916-0.719c0.389-0.106,0.805-0.051,1.155,0.153c0.433,0.254,4.28,2.572,5.589,5.531
			c0.707,1.599,0.788,3,0.242,4.165c-0.556,1.185-1.725,2.039-3.475,2.537C50.469,34.751,49.78,34.857,49.158,34.857z M48.688,25.81
			c-0.617,1.445-1.165,3.229-0.985,4.344c0.276,1.703,0.957,1.703,1.455,1.703c0.344,0,0.757-0.067,1.225-0.201
			c0.853-0.243,1.415-0.571,1.58-0.925c0.157-0.334,0.062-0.931-0.269-1.678C51.168,27.863,49.81,26.648,48.688,25.81z"/>
		<path id="path-7_23_" d="M24.681,22.783c-0.384,0-0.768-0.146-1.061-0.439c-0.831-0.831-1.991-1.321-3.184-1.346
			c-1.182-0.035-2.31,0.409-3.121,1.219c-0.586,0.586-1.536,0.586-2.122,0c-0.585-0.585-0.585-1.535,0-2.121
			c1.394-1.394,3.236-2.138,5.305-2.097c1.988,0.041,3.85,0.831,5.243,2.224c0.586,0.585,0.586,1.535,0,2.121
			C25.448,22.637,25.065,22.783,24.681,22.783z"/>
		<path id="path-8_15_" d="M48.376,22.783c-0.384,0-0.767-0.146-1.06-0.439c-0.831-0.831-1.992-1.321-3.184-1.346
			c-1.194-0.023-2.31,0.408-3.122,1.219c-0.586,0.586-1.535,0.586-2.121,0c-0.586-0.585-0.586-1.535,0-2.121
			c1.393-1.394,3.286-2.138,5.304-2.097c1.989,0.041,3.851,0.831,5.244,2.224c0.586,0.586,0.586,1.536,0,2.121
			C49.144,22.637,48.76,22.783,48.376,22.783z"/>
		<path id="path-9_11_" d="M31.59,64.586C14.171,64.586,0,50.416,0,33S14.171,1.414,31.59,1.414S63.18,15.584,63.18,33
			S49.009,64.586,31.59,64.586z M31.59,4.414C15.825,4.414,3,17.238,3,33c0,15.763,12.825,28.586,28.59,28.586
			S60.18,48.763,60.18,33C60.18,17.238,47.355,4.414,31.59,4.414z"/>
		<path id="path-10_7_" d="M34.837,53.677h-6.113c-7.569,0-13.726-5.607-13.726-12.498c0-0.829,0.672-1.5,1.5-1.5h30.565
			c0.828,0,1.5,0.671,1.5,1.5C48.563,48.07,42.405,53.677,34.837,53.677z M18.132,42.678c0.814,4.528,5.254,7.999,10.592,7.999
			h6.113c5.338,0,9.777-3.471,10.592-7.999H18.132z"/>
	</g>
</g>
<g>
</g>
<g>
</g>
<g>
</g>
<g>
</g>
<g>
</g>
<g>
</g>
<g>
</g>
<g>
</g>
<g>
</g>
<g>
</g>
<g>
</g>
<g>
</g>
<g>
</g>
<g>
</g>
<g>
</g>
</svg>
