<svg xmlns="http://www.w3.org/2000/svg" width="696.24" height="500.632" viewBox="0 0 696.24 500.632"><g transform="translate(14.287 0)"><g transform="translate(523.121 213.62)"><g transform="translate(0 0)"><path d="M471.294,240.185c-23.205-11.6-66.713-11.736-68.554-11.736a9.99,9.99,0,0,0,0,19.979c11.227,0,43.823,1.73,59.619,9.627a9.99,9.99,0,0,0,8.935-17.871Z" transform="translate(-392.751 -228.449)" fill="#d3d2d2"/></g></g><g transform="translate(0 0)"><g transform="translate(0 0)"><path d="M651.468,435.648,610.211,423.86a4.188,4.188,0,0,1-3.025-4.01V406.079a75.088,75.088,0,0,0,9.551-7.833,73.489,73.489,0,0,0,22.493-53.164v-19l3.989-7.977a63.73,63.73,0,0,0,6.692-28.352V238.271a9.99,9.99,0,0,0-9.99-9.99h-96.13A63.468,63.468,0,0,0,480.4,291.676v.6a52.985,52.985,0,0,0,5.565,23.574l5.116,10.232v16.316a77.944,77.944,0,0,0,32.044,63.021l0,14.433c0,2.226,0,3.147-8.249,5.5L494.744,431.1,436.51,409.928a9.978,9.978,0,0,0-2.723-7.648l-18.609-19.55V349.911c1.967-1.621,3.907-3.286,5.786-5.047A117.245,117.245,0,0,0,457.9,259.632v-26.21a115.471,115.471,0,0,0,10.681-48.558V78.056a9.99,9.99,0,0,0-9.99-9.99H309.059A95.546,95.546,0,0,0,213.622,163.5v21.363A115.47,115.47,0,0,0,224.3,233.425v22.551a122.063,122.063,0,0,0,42.725,93.164v33.591l-18.609,19.55a9.978,9.978,0,0,0-2.723,7.648l-61.462,22.349a52.38,52.38,0,0,0-12.35,6.47l-9.651-4.825c28.73-12.506,37.831-30.094,38.268-30.968a9.987,9.987,0,0,0,0-8.935c-7.2-14.4-8.074-40.8-8.775-62.016-.233-7.062-.454-13.734-.876-19.674-3.406-47.915-39.832-84.05-84.731-84.05s-81.327,36.133-84.731,84.05c-.422,5.942-.643,12.613-.876,19.677-.7,21.211-1.574,47.609-8.775,62.013a9.987,9.987,0,0,0,0,8.935c.437.874,9.519,18.426,38.307,30.946L23.234,447.3A41.815,41.815,0,0,0,0,484.9v73.8a9.99,9.99,0,1,0,19.979,0V484.9a21.935,21.935,0,0,1,12.19-19.726l33.382-16.691,11.612,11.035a42.012,42.012,0,0,0,57.91,0l11.611-11.034,10.885,5.442a52.6,52.6,0,0,0-8.034,27.891v76.886a9.99,9.99,0,1,0,19.979,0V481.82a32.835,32.835,0,0,1,21.548-30.764l64.8-23.563,26.976,40.466a20.6,20.6,0,0,0,15.161,9.1q1.035.1,2.06.1a20.59,20.59,0,0,0,14.594-6.055l16.457-16.457V558.708a9.99,9.99,0,0,0,19.979,0V454.651l16.457,16.457a20.581,20.581,0,0,0,14.594,6.056q1.025,0,2.059-.1a20.594,20.594,0,0,0,15.163-9.1L426.342,427.5l64.8,23.564a32.836,32.836,0,0,1,21.548,30.764v76.886a9.99,9.99,0,1,0,19.979,0V481.823a52.809,52.809,0,0,0-14.775-36.55l2.468-.7a54.781,54.781,0,0,0,9.3-3.356l25.505,25.505v91.992a9.99,9.99,0,1,0,19.979,0V466.717l25.328-25.328a23.771,23.771,0,0,0,4.25,1.688l41.258,11.788a22.148,22.148,0,0,1,16,21.206v82.639a9.99,9.99,0,1,0,19.979,0V476.07A42.216,42.216,0,0,0,651.468,435.648ZM64.086,418c-18.686-6.724-28.059-15.688-32.06-20.582a110.112,110.112,0,0,0,5.694-23.92,74.492,74.492,0,0,0,26.366,32.53Zm57.227,27.036a22.044,22.044,0,0,1-30.386,0l-9.29-8.828a20.669,20.669,0,0,0,2.429-9.755V415.808a74.283,74.283,0,0,0,44.107.007v10.639a20.669,20.669,0,0,0,2.429,9.759Zm-15.189-45.859a54.157,54.157,0,0,1-54.1-54.1A9.929,9.929,0,0,0,40.4,335.241c.029-.859.057-1.72.087-2.571.222-6.869.437-13.357.832-18.922,1.276-17.949,8.448-34.489,20.2-46.575a62.067,62.067,0,0,1,89.216,0c11.748,12.086,18.92,28.626,20.2,46.575.394,5.564.61,12.05.836,18.918.02.59.04,1.188.06,1.782-10.869-16.745-27.654-29.086-49.342-36.054a125.373,125.373,0,0,0-38-6.02,9.991,9.991,0,0,0-6.914,3.051L59.546,314.118a9.99,9.99,0,0,0,14.382,13.868l15-15.553c12.916.631,54.468,5.464,70.629,41.049A53.966,53.966,0,0,1,106.124,399.181Zm42.027,18.856V406.123a73.891,73.891,0,0,0,26.374-32.565,109.974,109.974,0,0,0,5.687,23.866C176.234,402.272,166.817,411.316,148.15,418.037Zm96.131-162.063V231.19a9.991,9.991,0,0,0-.994-4.344,95.82,95.82,0,0,1-9.687-41.98V163.5a75.544,75.544,0,0,1,75.458-75.458H448.605v96.821a95.821,95.821,0,0,1-9.687,41.98,9.991,9.991,0,0,0-.994,4.343v28.444A95.9,95.9,0,0,1,407.3,330.29a99.434,99.434,0,0,1-7.669,6.493c-.059.04-.115.084-.172.125a96.052,96.052,0,0,1-64.821,19.339C283.971,352.967,244.282,308.922,244.282,255.975Zm56.246,201a.628.628,0,0,1-.557.2.635.635,0,0,1-.507-.3l-31.068-46.6,10-10.505,47.131,32.216Zm40.575-38.55-54.1-36.977V362.8a112.477,112.477,0,0,0,46.34,13.378q3.95.256,7.86.254A115.712,115.712,0,0,0,395.2,363.2v18.248Zm41.639,38.446a.635.635,0,0,1-.508.305.616.616,0,0,1-.557-.2l-25-25,47.131-32.217,10,10.505Zm182.41-8.428-22.669-22.668a27.407,27.407,0,0,0,.618-5.934v-4.216a70.043,70.043,0,0,0,19.782,3.495c.77.024,1.533.035,2.3.035a74.2,74.2,0,0,0,22.025-3.331v4.022a23.88,23.88,0,0,0,.722,5.822Zm37.671-64.538a53.69,53.69,0,0,1-39.342,15.246c-28.908-.867-52.426-26.33-52.426-56.758V323.721A9.979,9.979,0,0,0,510,319.254l-6.171-12.342a32.907,32.907,0,0,1-3.455-14.639v-.6a43.465,43.465,0,0,1,43.416-43.416h86.141v41.49a43.647,43.647,0,0,1-4.583,19.417l-5.043,10.086a9.983,9.983,0,0,0-1.055,4.467v21.362A53.671,53.671,0,0,1,602.824,383.909Z" transform="translate(0 -68.066)" fill="#d3d2d2"/></g></g><g transform="translate(619.249 416.561)"><g transform="translate(0 0)"><path d="M474.913,380.814a9.99,9.99,0,0,0-9.99,9.99V454.89a9.99,9.99,0,0,0,19.98,0V390.8A9.991,9.991,0,0,0,474.913,380.814Z" transform="translate(-464.923 -380.814)" fill="#d3d2d2"/></g></g><g transform="translate(42.725 429.766)"><g transform="translate(0 0)"><path d="M42.067,390.728a9.99,9.99,0,0,0-9.99,9.99V451.6a9.99,9.99,0,0,0,19.979,0V400.718A9.991,9.991,0,0,0,42.067,390.728Z" transform="translate(-32.077 -390.728)" fill="#d3d2d2"/></g></g><g transform="translate(256.345 90.754)"><g transform="translate(0 0)"><path d="M359.049,165.868c-37.782-37.782-116.831-30.559-149.067-25.7A20.508,20.508,0,0,0,192.46,160.6v23.013a9.99,9.99,0,0,0,19.979,0V160.6a.661.661,0,0,1,.522-.675c12.876-1.941,38.427-4.935,64.9-3.17,31.151,2.074,53.714,9.894,67.062,23.242a9.989,9.989,0,1,0,14.127-14.126Z" transform="translate(-192.46 -136.203)" fill="#d3d2d2"/></g></g><g transform="translate(213.622 437.925)"><g transform="translate(0 0)"><path d="M170.374,396.853a9.99,9.99,0,0,0-9.99,9.99v42.725a9.99,9.99,0,1,0,19.979,0V406.843A9.991,9.991,0,0,0,170.374,396.853Z" transform="translate(-160.384 -396.853)" fill="#d3d2d2"/></g></g><g transform="translate(448.605 437.925)"><g transform="translate(0 0)"><path d="M346.8,396.853a9.99,9.99,0,0,0-9.989,9.99v42.725a9.99,9.99,0,0,0,19.979,0V406.843A9.991,9.991,0,0,0,346.8,396.853Z" transform="translate(-336.806 -396.853)" fill="#d3d2d2"/></g></g></g><g transform="translate(523.121 213.62)"><g transform="translate(0 0)"><path d="M471.294,240.185c-23.205-11.6-66.713-11.736-68.554-11.736a9.99,9.99,0,0,0,0,19.979c11.227,0,43.823,1.73,59.619,9.627a9.99,9.99,0,0,0,8.935-17.871Z" transform="translate(-392.751 -228.449)" fill="#d41920"/></g></g><g transform="translate(0 0)"><g transform="translate(0 0)"><path d="M651.468,435.648,610.211,423.86a4.188,4.188,0,0,1-3.025-4.01V406.079a75.088,75.088,0,0,0,9.551-7.833,73.489,73.489,0,0,0,22.493-53.164v-19l3.989-7.977a63.73,63.73,0,0,0,6.692-28.352V238.271a9.99,9.99,0,0,0-9.99-9.99h-96.13A63.468,63.468,0,0,0,480.4,291.676v.6a52.985,52.985,0,0,0,5.565,23.574l5.116,10.232v16.316a77.944,77.944,0,0,0,32.044,63.021l0,14.433c0,2.226,0,3.147-8.249,5.5L494.744,431.1,436.51,409.928a9.978,9.978,0,0,0-2.723-7.648l-18.609-19.55V349.911c1.967-1.621,3.907-3.286,5.786-5.047A117.245,117.245,0,0,0,457.9,259.632v-26.21a115.471,115.471,0,0,0,10.681-48.558V78.056a9.99,9.99,0,0,0-9.99-9.99H309.059A95.546,95.546,0,0,0,213.622,163.5v21.363A115.47,115.47,0,0,0,224.3,233.425v22.551a122.063,122.063,0,0,0,42.725,93.164v33.591l-18.609,19.55a9.978,9.978,0,0,0-2.723,7.648l-61.462,22.349a52.38,52.38,0,0,0-12.35,6.47l-9.651-4.825c28.73-12.506,37.831-30.094,38.268-30.968a9.987,9.987,0,0,0,0-8.935c-7.2-14.4-8.074-40.8-8.775-62.016-.233-7.062-.454-13.734-.876-19.674-3.406-47.915-39.832-84.05-84.731-84.05s-81.327,36.133-84.731,84.05c-.422,5.942-.643,12.613-.876,19.677-.7,21.211-1.574,47.609-8.775,62.013a9.987,9.987,0,0,0,0,8.935c.437.874,9.519,18.426,38.307,30.946L23.234,447.3A41.815,41.815,0,0,0,0,484.9v73.8a9.99,9.99,0,1,0,19.979,0V484.9a21.935,21.935,0,0,1,12.19-19.726l33.382-16.691,11.612,11.035a42.012,42.012,0,0,0,57.91,0l11.611-11.034,10.885,5.442a52.6,52.6,0,0,0-8.034,27.891v76.886a9.99,9.99,0,1,0,19.979,0V481.82a32.835,32.835,0,0,1,21.548-30.764l64.8-23.563,26.976,40.466a20.6,20.6,0,0,0,15.161,9.1q1.035.1,2.06.1a20.59,20.59,0,0,0,14.594-6.055l16.457-16.457V558.708a9.99,9.99,0,0,0,19.979,0V454.651l16.457,16.457a20.581,20.581,0,0,0,14.594,6.056q1.025,0,2.059-.1a20.594,20.594,0,0,0,15.163-9.1L426.342,427.5l64.8,23.564a32.836,32.836,0,0,1,21.548,30.764v76.886a9.99,9.99,0,1,0,19.979,0V481.823a52.809,52.809,0,0,0-14.775-36.55l2.468-.7a54.781,54.781,0,0,0,9.3-3.356l25.505,25.505v91.992a9.99,9.99,0,1,0,19.979,0V466.717l25.328-25.328a23.771,23.771,0,0,0,4.25,1.688l41.258,11.788a22.148,22.148,0,0,1,16,21.206v82.639a9.99,9.99,0,1,0,19.979,0V476.07A42.216,42.216,0,0,0,651.468,435.648ZM64.086,418c-18.686-6.724-28.059-15.688-32.06-20.582a110.112,110.112,0,0,0,5.694-23.92,74.492,74.492,0,0,0,26.366,32.53Zm57.227,27.036a22.044,22.044,0,0,1-30.386,0l-9.29-8.828a20.669,20.669,0,0,0,2.429-9.755V415.808a74.283,74.283,0,0,0,44.107.007v10.639a20.669,20.669,0,0,0,2.429,9.759Zm-15.189-45.859a54.157,54.157,0,0,1-54.1-54.1A9.929,9.929,0,0,0,40.4,335.241c.029-.859.057-1.72.087-2.571.222-6.869.437-13.357.832-18.922,1.276-17.949,8.448-34.489,20.2-46.575a62.067,62.067,0,0,1,89.216,0c11.748,12.086,18.92,28.626,20.2,46.575.394,5.564.61,12.05.836,18.918.02.59.04,1.188.06,1.782-10.869-16.745-27.654-29.086-49.342-36.054a125.373,125.373,0,0,0-38-6.02,9.991,9.991,0,0,0-6.914,3.051L59.546,314.118a9.99,9.99,0,0,0,14.382,13.868l15-15.553c12.916.631,54.468,5.464,70.629,41.049A53.966,53.966,0,0,1,106.124,399.181Zm42.027,18.856V406.123a73.891,73.891,0,0,0,26.374-32.565,109.974,109.974,0,0,0,5.687,23.866C176.234,402.272,166.817,411.316,148.15,418.037Zm96.131-162.063V231.19a9.991,9.991,0,0,0-.994-4.344,95.82,95.82,0,0,1-9.687-41.98V163.5a75.544,75.544,0,0,1,75.458-75.458H448.605v96.821a95.821,95.821,0,0,1-9.687,41.98,9.991,9.991,0,0,0-.994,4.343v28.444A95.9,95.9,0,0,1,407.3,330.29a99.434,99.434,0,0,1-7.669,6.493c-.059.04-.115.084-.172.125a96.052,96.052,0,0,1-64.821,19.339C283.971,352.967,244.282,308.922,244.282,255.975Zm56.246,201a.628.628,0,0,1-.557.2.635.635,0,0,1-.507-.3l-31.068-46.6,10-10.505,47.131,32.216Zm40.575-38.55-54.1-36.977V362.8a112.477,112.477,0,0,0,46.34,13.378q3.95.256,7.86.254A115.712,115.712,0,0,0,395.2,363.2v18.248Zm41.639,38.446a.635.635,0,0,1-.508.305.616.616,0,0,1-.557-.2l-25-25,47.131-32.217,10,10.505Zm182.41-8.428-22.669-22.668a27.407,27.407,0,0,0,.618-5.934v-4.216a70.043,70.043,0,0,0,19.782,3.495c.77.024,1.533.035,2.3.035a74.2,74.2,0,0,0,22.025-3.331v4.022a23.88,23.88,0,0,0,.722,5.822Zm37.671-64.538a53.69,53.69,0,0,1-39.342,15.246c-28.908-.867-52.426-26.33-52.426-56.758V323.721A9.979,9.979,0,0,0,510,319.254l-6.171-12.342a32.907,32.907,0,0,1-3.455-14.639v-.6a43.465,43.465,0,0,1,43.416-43.416h86.141v41.49a43.647,43.647,0,0,1-4.583,19.417l-5.043,10.086a9.983,9.983,0,0,0-1.055,4.467v21.362A53.671,53.671,0,0,1,602.824,383.909Z" transform="translate(0 -68.066)" fill="#d41920"/></g></g><g transform="translate(619.249 416.561)"><g transform="translate(0 0)"><path d="M474.913,380.814a9.99,9.99,0,0,0-9.99,9.99V454.89a9.99,9.99,0,0,0,19.98,0V390.8A9.991,9.991,0,0,0,474.913,380.814Z" transform="translate(-464.923 -380.814)" fill="#d41920"/></g></g><g transform="translate(42.725 429.766)"><g transform="translate(0 0)"><path d="M42.067,390.728a9.99,9.99,0,0,0-9.99,9.99V451.6a9.99,9.99,0,0,0,19.979,0V400.718A9.991,9.991,0,0,0,42.067,390.728Z" transform="translate(-32.077 -390.728)" fill="#d41920"/></g></g><g transform="translate(256.345 90.754)"><g transform="translate(0 0)"><path d="M359.049,165.868c-37.782-37.782-116.831-30.559-149.067-25.7A20.508,20.508,0,0,0,192.46,160.6v23.013a9.99,9.99,0,0,0,19.979,0V160.6a.661.661,0,0,1,.522-.675c12.876-1.941,38.427-4.935,64.9-3.17,31.151,2.074,53.714,9.894,67.062,23.242a9.989,9.989,0,1,0,14.127-14.126Z" transform="translate(-192.46 -136.203)" fill="#d41920"/></g></g><g transform="translate(213.622 437.925)"><g transform="translate(0 0)"><path d="M170.374,396.853a9.99,9.99,0,0,0-9.99,9.99v42.725a9.99,9.99,0,1,0,19.979,0V406.843A9.991,9.991,0,0,0,170.374,396.853Z" transform="translate(-160.384 -396.853)" fill="#d41920"/></g></g><g transform="translate(448.605 437.925)"><g transform="translate(0 0)"><path d="M346.8,396.853a9.99,9.99,0,0,0-9.989,9.99v42.725a9.99,9.99,0,0,0,19.979,0V406.843A9.991,9.991,0,0,0,346.8,396.853Z" transform="translate(-336.806 -396.853)" fill="#d41920"/></g></g></svg>