<svg xmlns="http://www.w3.org/2000/svg" width="700.277" height="523.908" viewBox="0 0 700.277 523.908"><g transform="translate(113.143 147.721)"><g transform="translate(-88.143 -147.721)"><g transform="translate(0)"><path d="M722.107,508.266c-.01-.213-.011-.424-.032-.638a11.626,11.626,0,0,0-.194-1.262.16.16,0,0,0,0-.027L700.2,403.375c-.008-.037-.016-.073-.023-.11L678.5,300.308c-.008-.037-.016-.073-.023-.11l-21.7-103.059a12.17,12.17,0,0,0-11.911-9.664H124.116A12.171,12.171,0,0,0,112.2,197.14L90.514,300.187c-.01.043-.019.086-.027.129L68.813,403.275c-.006.029-.013.06-.018.089L47.12,506.329a12.384,12.384,0,0,0-.2,1.327c-.01.1-.008.21-.016.313-.021.289-.044.578-.044.873v48.824a12.17,12.17,0,0,0,12.171,12.171H347.909v68.38H254.3a12.17,12.17,0,0,0-12.171,12.171v36.653H124.118a12.171,12.171,0,0,0,0,24.342H644.853a12.171,12.171,0,0,0,0-24.342h-118V650.388a12.17,12.17,0,0,0-12.171-12.171H421.079V569.838H709.962a12.17,12.17,0,0,0,12.171-12.171V509.06c0-.016,0-.035,0-.055v-.158C722.136,508.648,722.117,508.46,722.107,508.266Zm-27.141-11.593H504.335l-5.526-78.723H678.392ZM656.694,314.885l16.575,78.723H497.1l-5.526-78.723ZM635,211.82l16.575,78.723H489.867l-5.526-78.723Zm-325.948,0h150.89l5.526,78.723H303.525Zm-7.231,103.065H467.173l5.526,78.723H296.294Zm-7.231,103.067h179.82l5.524,78.722H289.063ZM133.993,211.82H284.647l-5.524,78.723h-161.7ZM112.3,314.885H277.415l-5.524,78.723H95.723ZM502.514,662.564v24.481H266.477V662.564H502.514Zm-130.26-24.344v-68.38h24.482v68.38Zm36.8-92.723c-.047,0-.094-.006-.14-.006H360.084c-.047,0-.094.006-.141.006H71.2V521.017H129.18a12.171,12.171,0,1,0,0-24.342H74.027L90.6,417.951H270.182l-5.524,78.722H181.815a12.171,12.171,0,0,0,0,24.342H697.789V545.5H409.05Z" transform="translate(-46.857 -187.476)" fill="#d3d2d2"/></g></g></g><g transform="translate(88.143 147.721)"><g transform="translate(-88.143 -147.721)"><g transform="translate(0)"><path d="M722.107,508.266c-.01-.213-.011-.424-.032-.638a11.626,11.626,0,0,0-.194-1.262.16.16,0,0,0,0-.027L700.2,403.375c-.008-.037-.016-.073-.023-.11L678.5,300.308c-.008-.037-.016-.073-.023-.11l-21.7-103.059a12.17,12.17,0,0,0-11.911-9.664H124.116A12.171,12.171,0,0,0,112.2,197.14L90.514,300.187c-.01.043-.019.086-.027.129L68.813,403.275c-.006.029-.013.06-.018.089L47.12,506.329a12.384,12.384,0,0,0-.2,1.327c-.01.1-.008.21-.016.313-.021.289-.044.578-.044.873v48.824a12.17,12.17,0,0,0,12.171,12.171H347.909v68.38H254.3a12.17,12.17,0,0,0-12.171,12.171v36.653H124.118a12.171,12.171,0,0,0,0,24.342H644.853a12.171,12.171,0,0,0,0-24.342h-118V650.388a12.17,12.17,0,0,0-12.171-12.171H421.079V569.838H709.962a12.17,12.17,0,0,0,12.171-12.171V509.06c0-.016,0-.035,0-.055v-.158C722.136,508.648,722.117,508.46,722.107,508.266Zm-27.141-11.593H504.335l-5.526-78.723H678.392ZM656.694,314.885l16.575,78.723H497.1l-5.526-78.723ZM635,211.82l16.575,78.723H489.867l-5.526-78.723Zm-325.948,0h150.89l5.526,78.723H303.525Zm-7.231,103.065H467.173l5.526,78.723H296.294Zm-7.231,103.067h179.82l5.524,78.722H289.063ZM133.993,211.82H284.647l-5.524,78.723h-161.7ZM112.3,314.885H277.415l-5.524,78.723H95.723ZM502.514,662.564v24.481H266.477V662.564H502.514Zm-130.26-24.344v-68.38h24.482v68.38Zm36.8-92.723c-.047,0-.094-.006-.14-.006H360.084c-.047,0-.094.006-.141.006H71.2V521.017H129.18a12.171,12.171,0,1,0,0-24.342H74.027L90.6,417.951H270.182l-5.524,78.722H181.815a12.171,12.171,0,0,0,0,24.342H697.789V545.5H409.05Z" transform="translate(-46.857 -187.476)" fill="#d41920"/></g></g></g></svg>